Coordinates
version=1
nRows=11
nColumns=36
inDegrees=yes

Units are S.I. units (second, meters, Newtons, ...)
If the header above contains a line with 'inDegrees', this indicates whether rotational values are in degrees (yes) or radians (no).

endheader
time	pelvis_tilt	pelvis_list	pelvis_rotation	pelvis_tx	pelvis_ty	pelvis_tz	hip_flexion_r	hip_adduction_r	hip_rotation_r	knee_angle_r	knee_angle_r_beta	ankle_angle_r	subtalar_angle_r	mtp_angle_r	hip_flexion_l	hip_adduction_l	hip_rotation_l	knee_angle_l	knee_angle_l_beta	ankle_angle_l	subtalar_angle_l	mtp_angle_l	lumbar_extension	lumbar_bending	lumbar_rotation	arm_flex_r	arm_add_r	arm_rot_r	elbow_flex_r	pro_sup_r	arm_flex_l	arm_add_l	arm_rot_l	elbow_flex_l	pro_sup_l
     44.78333330	      1.26711570	     -1.94142972	      3.77620400	      0.53459967	      1.04982890	      0.86451991	     -0.13063653	      4.01621177	    -10.10458708	     10.87844797	      0.18986473	     14.18166252	     -1.61255078	     -7.49999987	     24.74873745	     -4.97807560	      2.04257057	     42.96051922	      0.74980251	      6.98742803	     -8.22501618	     -7.49999987	    -21.23142005	      5.80340252	      4.32974781	     10.22582724	    -14.05482400	     -3.94767678	     36.80824434	     72.41539136	      2.23085321	     -4.53166391	     -1.92479432	     22.36567833	     68.43197991
     44.80000000	      0.32651480	     -1.65338971	      3.90363955	      0.53071575	      1.04917808	      0.86543532	     -0.00981519	      3.73426393	    -10.29344189	     10.09345688	      0.17616406	     14.80605703	     -0.90610696	     -7.49999987	     27.17885611	     -4.50737687	      1.35115779	     38.89710636	      0.67888258	      7.62574409	     -6.86874658	     -7.49999987	    -20.87921413	      5.42623006	      4.29811048	     11.40323751	    -14.64224850	     -1.82700930	     38.04421452	     72.66249861	      1.82220636	     -4.61650700	     -1.65601566	     23.10369320	     68.16713227
     44.81666670	     -0.31429260	     -1.50417224	      4.01374655	      0.52920651	      1.04908395	      0.86693347	     -0.37445508	      3.67686686	    -10.27417455	      9.17874465	      0.16019932	     15.48054472	     -0.54723285	     -7.49999987	     29.08688730	     -4.15142693	      0.91157274	     34.60859766	      0.60403398	      7.78939574	     -5.58845316	     -7.49999987	    -20.55613689	      5.29223013	      4.43566459	     12.24273201	    -14.84049512	     -1.38977265	     38.89644288	     72.98223476	      1.66314535	     -4.59334151	     -1.67757771	     23.17920113	     68.29577910
     44.83333330	     -0.53330896	     -1.56834950	      4.26003653	      0.52757754	      1.04878388	      0.86837592	     -1.31771694	      3.87701629	    -10.69907333	      8.26766382	      0.14429796	     16.36152613	      0.47596563	     -7.49999987	     30.36208221	     -3.96166983	      0.82916050	     30.42022456	      0.53093308	      8.03528302	     -4.27241337	     -7.49999987	    -20.51479506	      5.45455844	      3.97461273	     13.34605132	    -15.36257264	      1.23455067	     39.50796883	     74.13957837	      1.10662285	     -4.56712714	     -2.43187548	     24.12465565	     68.55073704
     44.85000000	     -0.72943469	     -1.74812428	      4.51233326	      0.52539171	      1.04766603	      0.86890592	     -2.41042799	      4.28538233	    -10.68042367	      7.29270461	      0.12728171	     16.27301586	      0.57784527	     -7.49999987	     31.30269548	     -3.80910448	      1.20408372	     26.12727693	      0.45600701	      8.11445803	     -3.08597027	     -7.49999987	    -20.29294077	      5.69644092	      4.22792830	     13.87189796	    -15.58744109	      1.82501320	     39.63788031	     74.06278364	      1.16016448	     -4.43741251	     -2.68735134	     24.01922252	     68.36376357
     44.86666670	     -0.62005195	     -1.73678842	      4.93749050	      0.52367441	      1.04587190	      0.86762389	     -4.00634617	      4.57265771	    -10.81600087	      6.23595546	      0.10883795	     15.78780910	      0.95561883	     -7.49999987	     31.60755322	     -3.31514211	      2.11743323	     21.74450354	      0.37951318	      8.09635617	     -2.12814068	     -7.49999987	    -20.40776995	      5.87284332	      3.49018188	     15.04399447	    -15.82933613	      4.39036885	     39.32916704	     74.66648432	      0.85086224	     -4.45585191	     -2.84264528	     23.97863877	     68.62147511
     44.88333330	     -0.62329782	     -1.61744198	      5.45281487	      0.52425733	      1.04300001	      0.86492730	     -5.63812896	      4.81308114	    -10.76222429	      5.07963245	      0.08865631	     15.04846015	      1.03722839	     -7.49999987	     31.95142419	     -2.64085201	      3.34819605	     17.82589593	      0.31112058	      8.33279052	     -1.13328206	     -7.49999987	    -20.30436592	      5.86727706	      2.97796528	     15.71702359	    -15.86597309	      5.65377630	     39.00867894	     74.78849453	      0.59779325	     -4.38383765	     -3.09993322	     23.69338343	     68.66831910
     44.90000000	     -0.64961168	     -1.25500003	      5.90814287	      0.52831279	      1.03725239	      0.86115299	     -7.32544520	      4.79187128	    -10.53239189	      3.94065999	      0.06877749	     14.77947518	      1.15654273	     -7.49999987	     32.34775473	     -1.74555734	      4.59163143	     14.84792515	      0.25914518	      8.79487090	     -0.50017287	     -7.49999987	    -20.12617059	      5.51429165	      2.31224704	     16.18591280	    -15.80205298	      6.89383089	     38.64779622	     74.91784466	      0.07430142	     -4.36948614	     -3.33388293	     23.42487912	     68.77552770
     44.91666670	     -0.64997343	     -0.70722605	      6.19436346	      0.53435570	      1.02974486	      0.85667323	     -8.94848009	      4.48009097	    -10.17848856	      3.10916525	      0.05426517	     15.29322708	      1.41975486	     -7.49999987	     32.82615546	     -0.71304425	      5.49346829	     13.24304834	      0.23113480	      9.53833823	     -0.16830913	     -7.49999987	    -19.92690183	      4.91253010	      1.82500264	     16.18421152	    -15.73249362	      7.43761866	     38.48298375	     74.71475044	     -0.64732637	     -4.28722864	     -3.82005094	     23.11744081	     68.65722969
     44.93333330	     -0.65187957	     -0.16698545	      6.27760518	      0.53968186	      1.02210673	      0.85229152	    -10.36432255	      4.04423667	     -9.66440098	      2.68104558	      0.04679307	     16.27433641	      1.66006018	     -7.49999987	     33.44174586	      0.24970146	      5.74122980	     13.14621166	      0.22944468	     10.51740909	      0.20458132	     -7.49999987	    -19.66603487	      4.19384195	      1.51467019	     15.93077712	    -15.64388801	      7.73989417	     38.41843977	     73.95466896	     -1.46716637	     -4.21284093	     -4.45582864	     22.61207114	     68.13304381
     44.95000000	     -0.62626585	      0.22836767	      6.25278478	      0.54290619	      1.01586721	      0.84853769	    -11.54259296	      3.63873991	     -8.85925015	      2.73068324	      0.04765941	     17.25396863	      1.32690605	     -7.49999987	     34.16871629	      1.05571074	      5.54220956	     14.44993316	      0.25219891	     11.50366502	      0.46244738	     -7.49999987	    -19.39766166	      3.63905499	      1.44037325	     15.62566361	    -15.65684873	      7.83229969	     38.26994362	     73.46245676	     -2.09074406	     -4.10799116	     -4.99692388	     21.81729977	     67.75386053
